<?xml version="1.0" encoding="UTF-8"?>
<svg id="Layer_1" data-name="Layer 1" xmlns="http://www.w3.org/2000/svg" viewBox="0 0 824.26 278.79">
  <defs>
    <style>
      .cls-1, .cls-2 {
        fill: #8b6f47;
      }

      .cls-3 {
        fill: #1a1a18;
      }

      .cls-2 {
        font-family: Georgia-Italic, Georgia;
        font-size: 8.77px;
        font-style: italic;
        letter-spacing: .36em;
      }

      .cls-2, .cls-4, .cls-5 {
        isolation: isolate;
      }

      .cls-4 {
        opacity: .4;
        stroke-width: .3px;
      }

      .cls-4, .cls-5 {
        fill: none;
        stroke: #8b6f47;
      }

      .cls-5 {
        opacity: .8;
      }
    </style>
  </defs>
  <line class="cls-5" x1="242.98" y1="84.66" x2="581.28" y2="84.66"/>
  <line class="cls-4" x1="242.98" y1="87.79" x2="581.28" y2="87.79"/>
  <path class="cls-3" d="M271.66,155.78h-20.18v-2.43c.55-.05,1.34-.11,2.38-.21,1.04-.09,1.75-.23,2.14-.41.69-.27,1.19-.69,1.51-1.25.32-.56.48-1.28.48-2.18v-17.3h-22.85v16.92c0,.8.13,1.47.39,2.02.26.55.78,1.03,1.56,1.44.39.21,1.08.41,2.07.62.99.21,1.78.32,2.35.34v2.43h-20.18v-2.43c.55-.05,1.34-.11,2.38-.21,1.04-.09,1.75-.23,2.14-.41.69-.27,1.19-.69,1.51-1.25.32-.56.48-1.28.48-2.18v-35.08c0-.73-.15-1.4-.45-2-.3-.6-.81-1.08-1.54-1.42-.62-.3-1.37-.56-2.24-.79-.88-.23-1.64-.37-2.28-.41v-2.43h20.18v2.43c-.64.02-1.42.13-2.35.31-.92.18-1.62.35-2.07.51-.78.27-1.3.73-1.56,1.37-.26.64-.39,1.34-.39,2.09v15.07h22.85v-14.73c0-.73-.15-1.4-.45-2-.3-.6-.81-1.08-1.54-1.42-.62-.3-1.36-.56-2.24-.79-.88-.23-1.64-.37-2.28-.41v-2.43h20.18v2.43c-.64.02-1.42.13-2.35.31-.92.18-1.62.35-2.07.51-.78.27-1.3.73-1.56,1.37-.26.64-.39,1.34-.39,2.09v35.05c0,.8.13,1.47.39,2.02.26.55.78,1.03,1.56,1.44.39.21,1.08.41,2.07.62.99.21,1.78.32,2.35.34v2.43Z"/>
  <path class="cls-3" d="M329,112.92c2.15,2.24,3.83,4.94,5.04,8.1,1.21,3.16,1.82,6.66,1.82,10.5s-.62,7.37-1.85,10.52-2.95,5.84-5.14,8.05c-2.12,2.19-4.59,3.88-7.4,5.07-2.81,1.19-5.8,1.78-8.98,1.78-3.38,0-6.5-.63-9.37-1.9-2.87-1.27-5.33-3.03-7.38-5.29-2.05-2.22-3.67-4.9-4.85-8.07-1.18-3.16-1.76-6.55-1.76-10.16,0-3.95.62-7.47,1.85-10.57,1.23-3.09,2.93-5.77,5.1-8.03,2.15-2.24,4.64-3.95,7.49-5.14,2.84-1.19,5.82-1.78,8.92-1.78s6.26.61,9.11,1.82c2.85,1.21,5.32,2.91,7.4,5.1ZM323.9,147.38c1.28-2.08,2.21-4.43,2.79-7.06.58-2.63.87-5.56.87-8.8s-.33-6.4-.98-9.18c-.65-2.79-1.6-5.16-2.86-7.13-1.26-1.94-2.83-3.45-4.73-4.54-1.9-1.08-4.07-1.63-6.51-1.63-2.74,0-5.07.63-6.99,1.88-1.92,1.26-3.48,2.94-4.69,5.04-1.14,2.01-1.99,4.36-2.55,7.06-.56,2.7-.84,5.53-.84,8.5,0,3.29.3,6.26.89,8.91.59,2.65,1.53,5,2.81,7.06,1.23,2.01,2.79,3.58,4.66,4.71,1.87,1.13,4.11,1.7,6.71,1.7,2.44,0,4.65-.57,6.61-1.71,1.96-1.14,3.56-2.74,4.8-4.8Z"/>
  <path class="cls-3" d="M400.53,155.78h-13.09c-2.9-4.54-5.52-8.47-7.85-11.79-2.34-3.31-4.88-6.73-7.62-10.24h-4.98v15.42c0,.8.12,1.5.38,2.11.25.61.79,1.07,1.61,1.39.41.16,1.13.31,2.16.45,1.03.14,1.9.22,2.6.24v2.43h-20.56v-2.43c.55-.05,1.34-.12,2.38-.24,1.04-.11,1.76-.26,2.18-.45.69-.3,1.18-.73,1.49-1.3.31-.57.46-1.3.46-2.19v-35.15c0-.8-.12-1.51-.34-2.12-.23-.62-.77-1.08-1.61-1.4-.57-.21-1.31-.39-2.23-.56-.91-.17-1.69-.28-2.33-.33v-2.43h22.44c2.06,0,3.99.21,5.79.63,1.8.42,3.44,1.1,4.9,2.04,1.42.91,2.55,2.11,3.39,3.58.84,1.47,1.27,3.25,1.27,5.33,0,1.87-.29,3.53-.86,4.97-.57,1.44-1.42,2.68-2.54,3.73-1.03.98-2.26,1.83-3.7,2.55s-3.03,1.33-4.76,1.83c2.4,3.17,4.39,5.85,5.98,8.02,1.59,2.17,3.53,4.81,5.84,7.91,1,1.37,1.91,2.38,2.72,3.03.81.65,1.62,1.18,2.42,1.59.59.3,1.34.53,2.23.69.89.16,1.63.25,2.23.27v2.43ZM382.51,119.55c0-2.94-.84-5.27-2.54-6.99-1.69-1.72-4.08-2.58-7.16-2.58h-5.82v20.83h4.49c3.15,0,5.78-1.01,7.88-3.03,2.1-2.02,3.15-4.76,3.15-8.23Z"/>
  <path class="cls-1" d="M458.49,109.59c-.59.02-1.31.15-2.16.39-.85.24-1.54.53-2.09.87-.78.48-1.4,1.1-1.87,1.85-.47.75-.93,1.64-1.39,2.67-1.53,3.63-3.83,9.29-6.89,16.98-3.06,7.69-6.21,15.7-9.46,24.03h-2.84c-3.29-8.84-6.46-17.36-9.52-25.56-3.06-8.2-5.14-13.74-6.24-16.62-.27-.71-.64-1.33-1.1-1.87-.46-.54-1.06-1.04-1.82-1.52-.62-.39-1.3-.68-2.06-.87-.75-.19-1.45-.31-2.09-.36v-2.43h20.12v2.43c-1.71.09-3.16.26-4.33.51s-1.76.7-1.76,1.34c0,.25.04.55.14.89.09.34.17.62.24.82.85,2.24,2.22,5.89,4.11,10.95s4.59,12.27,8.09,21.62c1.74-4.23,3.73-9.22,6-14.98,2.26-5.76,3.78-9.71,4.56-11.86.75-2.08,1.19-3.52,1.32-4.32.13-.8.19-1.45.19-1.95s-.23-.96-.7-1.32c-.47-.35-1.09-.66-1.87-.91-.75-.23-1.52-.4-2.29-.51-.78-.11-1.57-.21-2.36-.27v-2.43h18.08v2.43Z"/>
  <path class="cls-1" d="M512.5,141.46l-.92,14.32h-40.36v-2.43c.69-.05,1.6-.14,2.74-.29,1.14-.15,1.88-.3,2.23-.46.73-.34,1.24-.79,1.52-1.34.29-.55.43-1.24.43-2.09v-34.95c0-.75-.13-1.42-.38-2-.25-.58-.78-1.06-1.58-1.42-.62-.3-1.44-.56-2.48-.79-1.04-.23-1.87-.37-2.48-.41v-2.43h37.62v11.72h-2.57c-.46-1.74-1.44-3.58-2.96-5.53-1.52-1.95-2.96-3.02-4.33-3.2-.71-.09-1.55-.16-2.54-.21-.98-.05-2.1-.07-3.36-.07h-7.64v19.32h5.48c1.76,0,3.04-.17,3.85-.5.81-.33,1.52-.88,2.14-1.66.5-.66.93-1.55,1.28-2.66.35-1.11.59-2.15.7-3.13h2.57v19.05h-2.57c-.09-1.1-.34-2.26-.74-3.48-.4-1.22-.82-2.11-1.25-2.66-.71-.89-1.51-1.47-2.42-1.75-.9-.27-2.1-.41-3.58-.41h-5.48v14.57c0,1.46.1,2.61.31,3.45.21.84.6,1.48,1.2,1.92.59.43,1.4.71,2.43.84,1.03.12,2.49.19,4.38.19h2.98c1.23,0,2.27-.05,3.12-.14.87-.09,1.76-.26,2.69-.5.92-.24,1.58-.56,1.97-.98,1.05-1.1,2.15-2.76,3.31-4.98s1.89-3.87,2.21-4.92h2.47Z"/>
  <path class="cls-1" d="M549.94,155.78h-21.89v-2.43c.62-.05,1.51-.11,2.67-.21,1.17-.09,1.99-.23,2.47-.41.75-.3,1.3-.7,1.64-1.22.34-.51.51-1.23.51-2.14v-35.22c0-.8-.13-1.47-.38-2-.25-.54-.84-.99-1.78-1.35-.69-.27-1.55-.53-2.59-.77s-1.89-.38-2.55-.43v-2.43h21.89v2.43c-.71.02-1.55.11-2.54.26-.98.15-1.84.34-2.57.57-.87.27-1.45.72-1.75,1.34-.3.62-.45,1.3-.45,2.06v35.19c0,.75.17,1.42.5,2s.9,1.04,1.7,1.39c.48.18,1.26.38,2.35.6,1.08.22,2,.34,2.76.36v2.43Z"/>
  <path class="cls-1" d="M606.29,141.32l-1.03,14.46h-37.99v-2.43c.55-.05,1.34-.12,2.38-.24,1.04-.11,1.76-.26,2.18-.45.69-.3,1.18-.73,1.49-1.3.31-.57.46-1.3.46-2.19v-34.81c0-.78-.13-1.46-.39-2.06-.26-.59-.78-1.07-1.56-1.44-.53-.27-1.26-.54-2.21-.81-.95-.26-1.73-.42-2.35-.46v-2.43h20.52v2.43c-.64.02-1.47.14-2.48.34-1.02.21-1.75.39-2.21.55-.78.27-1.31.74-1.59,1.4-.29.66-.43,1.37-.43,2.12v32.65c0,1.51.07,2.68.22,3.51.15.83.5,1.48,1.04,1.94.53.41,1.31.68,2.35.81,1.04.13,2.5.19,4.37.19.84,0,1.72-.02,2.64-.07.91-.05,1.78-.14,2.6-.27.8-.14,1.54-.33,2.21-.57.67-.24,1.17-.54,1.49-.91.94-1.05,2.03-2.64,3.27-4.78,1.25-2.14,2.11-3.87,2.59-5.19h2.43Z"/>
  <line class="cls-4" x1="242.98" y1="174.87" x2="581.28" y2="174.87"/>
  <line class="cls-5" x1="242.98" y1="178.01" x2="581.28" y2="178.01"/>
  <text class="cls-2" transform="translate(338.23 203.69)"><tspan x="0" y="0">watch culture, deeper</tspan></text>
</svg>