<?xml version="1.0" encoding="UTF-8"?>
<svg id="Layer_1" data-name="Layer 1" xmlns="http://www.w3.org/2000/svg" viewBox="0 0 824.26 278.79">
  <defs>
    <style>
      .cls-1 {
        fill: #8b6f47;
      }

      .cls-2 {
        fill: #f5efe6;
      }
    </style>
  </defs>
  <g>
    <path class="cls-1" d="M119.53,189.43h-41.54v-5.01c1.13-.09,2.76-.23,4.9-.42,2.14-.19,3.61-.47,4.41-.85,1.41-.56,2.44-1.42,3.1-2.57.66-1.15.99-2.64.99-4.48v-35.61h-47.04v34.84c0,1.65.27,3.03.81,4.16.54,1.13,1.61,2.12,3.21,2.96.8.42,2.22.85,4.27,1.27,2.04.42,3.65.66,4.83.71v5.01H15.94v-5.01c1.13-.09,2.76-.23,4.9-.42,2.14-.19,3.61-.47,4.41-.85,1.41-.56,2.44-1.42,3.1-2.57.66-1.15.99-2.64.99-4.48v-72.21c0-1.5-.31-2.88-.92-4.13-.61-1.25-1.67-2.22-3.17-2.93-1.27-.61-2.81-1.15-4.62-1.62-1.81-.47-3.37-.75-4.69-.85v-5.01h41.54v5.01c-1.32.05-2.93.26-4.83.63-1.9.38-3.33.73-4.27,1.06-1.6.56-2.67,1.5-3.21,2.82-.54,1.32-.81,2.75-.81,4.3v31.03h47.04v-30.32c0-1.5-.31-2.88-.92-4.13-.61-1.25-1.67-2.22-3.17-2.93-1.27-.61-2.81-1.15-4.62-1.62-1.81-.47-3.37-.75-4.69-.85v-5.01h41.54v5.01c-1.32.05-2.93.26-4.83.63-1.9.38-3.33.73-4.27,1.06-1.6.56-2.67,1.5-3.21,2.82-.54,1.32-.81,2.75-.81,4.3v72.14c0,1.65.27,3.03.81,4.16.54,1.13,1.61,2.12,3.21,2.96.8.42,2.22.85,4.27,1.27,2.04.42,3.65.66,4.83.71v5.01Z"/>
    <path class="cls-1" d="M237.56,101.21c4.42,4.61,7.87,10.17,10.37,16.68,2.49,6.51,3.74,13.72,3.74,21.61s-1.27,15.16-3.81,21.65c-2.54,6.49-6.06,12.01-10.58,16.57-4.37,4.51-9.45,7.99-15.23,10.44-5.78,2.44-11.94,3.67-18.48,3.67-6.96,0-13.39-1.3-19.29-3.91-5.9-2.61-10.97-6.24-15.2-10.9-4.23-4.56-7.56-10.1-9.98-16.61-2.42-6.51-3.63-13.48-3.63-20.91,0-8.13,1.27-15.38,3.81-21.76,2.54-6.37,6.04-11.88,10.51-16.54,4.42-4.61,9.56-8.13,15.41-10.58,5.85-2.44,11.98-3.67,18.37-3.67s12.88,1.25,18.76,3.74c5.88,2.49,10.95,5.99,15.23,10.51ZM227.06,172.16c2.63-4.28,4.55-9.12,5.75-14.53,1.2-5.41,1.8-11.45,1.8-18.12s-.67-13.16-2.01-18.9c-1.34-5.74-3.3-10.62-5.89-14.67-2.59-4-5.83-7.11-9.73-9.34-3.9-2.23-8.37-3.35-13.4-3.35-5.64,0-10.44,1.29-14.39,3.88-3.95,2.59-7.17,6.04-9.66,10.37-2.35,4.14-4.1,8.98-5.25,14.53-1.15,5.55-1.73,11.38-1.73,17.49,0,6.77.61,12.88,1.83,18.34,1.22,5.45,3.15,10.3,5.78,14.53,2.54,4.14,5.74,7.37,9.59,9.7,3.85,2.33,8.46,3.49,13.82,3.49,5.03,0,9.57-1.17,13.61-3.53,4.04-2.35,7.33-5.64,9.87-9.87Z"/>
    <path class="cls-1" d="M384.79,189.43h-26.95c-5.97-9.35-11.36-17.44-16.17-24.26-4.81-6.82-10.04-13.85-15.67-21.09h-10.25v31.73c0,1.65.26,3.09.78,4.34.52,1.25,1.62,2.2,3.31,2.86.85.33,2.33.63,4.44.92,2.12.28,3.9.45,5.36.49v5.01h-42.31v-5.01c1.13-.09,2.76-.26,4.9-.49,2.14-.23,3.63-.54,4.48-.92,1.41-.61,2.43-1.5,3.07-2.68.63-1.17.95-2.68.95-4.51v-72.36c0-1.65-.24-3.1-.71-4.37-.47-1.27-1.58-2.23-3.31-2.89-1.18-.42-2.7-.81-4.58-1.16-1.88-.35-3.48-.58-4.8-.67v-5.01h46.19c4.23,0,8.2.44,11.92,1.3,3.71.87,7.08,2.27,10.08,4.2,2.91,1.88,5.24,4.34,6.98,7.37,1.74,3.03,2.61,6.69,2.61,10.97,0,3.86-.59,7.26-1.76,10.23-1.18,2.96-2.92,5.52-5.22,7.69-2.12,2.02-4.65,3.77-7.62,5.25s-6.23,2.74-9.8,3.77c4.94,6.54,9.04,12.04,12.31,16.5,3.27,4.47,7.27,9.9,12.02,16.29,2.07,2.82,3.94,4.9,5.61,6.24,1.67,1.34,3.33,2.43,4.97,3.28,1.22.61,2.75,1.08,4.58,1.41,1.83.33,3.36.52,4.58.56v5.01ZM347.7,114.86c0-6.06-1.74-10.85-5.22-14.4-3.48-3.54-8.39-5.32-14.74-5.32h-11.99v42.88h9.24c6.49,0,11.89-2.08,16.22-6.23,4.33-4.15,6.49-9.8,6.49-16.93Z"/>
    <path class="cls-1" d="M504.09,94.37c-1.22.05-2.7.32-4.44.81s-3.17,1.09-4.3,1.8c-1.6.99-2.88,2.26-3.84,3.81-.96,1.55-1.92,3.39-2.86,5.5-3.15,7.48-7.88,19.12-14.17,34.94-6.3,15.82-12.79,32.31-19.46,49.47h-5.85c-6.77-18.19-13.31-35.73-19.61-52.61-6.3-16.88-10.58-28.28-12.83-34.2-.56-1.46-1.32-2.74-2.26-3.84-.94-1.1-2.19-2.15-3.74-3.14-1.27-.8-2.68-1.4-4.23-1.8-1.55-.4-2.99-.65-4.3-.74v-5.01h41.41v5.01c-3.53.19-6.5.54-8.92,1.06-2.42.52-3.63,1.43-3.63,2.75,0,.52.09,1.13.28,1.83.19.71.35,1.27.49,1.69,1.74,4.61,4.56,12.12,8.46,22.54,3.9,10.42,9.45,25.26,16.64,44.5,3.57-8.7,7.69-18.98,12.34-30.84,4.66-11.86,7.78-20,9.38-24.42,1.55-4.28,2.46-7.24,2.71-8.89.26-1.65.39-2.99.39-4.02s-.48-1.99-1.45-2.71c-.96-.73-2.25-1.35-3.84-1.87-1.55-.47-3.13-.82-4.72-1.06-1.6-.23-3.22-.42-4.87-.56v-5.01h37.22v5.01Z"/>
    <path class="cls-1" d="M615.28,159.95l-1.9,29.48h-83.08v-5.01c1.41-.09,3.29-.29,5.64-.6,2.35-.31,3.88-.62,4.58-.95,1.5-.71,2.55-1.62,3.14-2.75s.88-2.56.88-4.3v-71.93c0-1.55-.26-2.93-.78-4.13-.52-1.2-1.6-2.17-3.24-2.93-1.27-.61-2.97-1.15-5.11-1.62-2.14-.47-3.84-.75-5.11-.85v-5.01h77.43v24.12h-5.29c-.94-3.57-2.97-7.37-6.1-11.39-3.13-4.02-6.1-6.22-8.92-6.59-1.46-.19-3.2-.33-5.22-.42-2.02-.09-4.33-.14-6.91-.14h-15.73v39.77h11.28c3.62,0,6.26-.34,7.93-1.02,1.67-.68,3.14-1.82,4.41-3.42,1.03-1.36,1.92-3.18,2.64-5.47.73-2.28,1.21-4.43,1.45-6.45h5.29v39.21h-5.29c-.19-2.26-.69-4.64-1.52-7.16-.82-2.51-1.68-4.34-2.57-5.47-1.46-1.83-3.11-3.03-4.97-3.6-1.86-.56-4.31-.85-7.37-.85h-11.28v29.99c0,3,.21,5.37.63,7.11.42,1.74,1.25,3.05,2.47,3.94,1.22.89,2.89,1.47,5.01,1.73,2.12.26,5.12.39,9.03.39h6.13c2.54,0,4.68-.09,6.42-.28,1.79-.19,3.63-.53,5.54-1.02s3.25-1.16,4.05-2.01c2.16-2.26,4.43-5.68,6.81-10.26,2.37-4.58,3.89-7.96,4.55-10.12h5.08Z"/>
    <path class="cls-1" d="M692.34,189.43h-45.06v-5.01c1.27-.09,3.1-.23,5.5-.42,2.4-.19,4.09-.47,5.08-.85,1.55-.61,2.68-1.45,3.38-2.5.71-1.06,1.06-2.53,1.06-4.41v-72.5c0-1.65-.26-3.02-.78-4.13-.52-1.1-1.74-2.03-3.67-2.79-1.41-.56-3.19-1.09-5.32-1.59-2.14-.49-3.89-.79-5.25-.88v-5.01h45.06v5.01c-1.46.05-3.2.22-5.22.53-2.02.31-3.79.69-5.29,1.16-1.79.56-2.99,1.48-3.6,2.75-.61,1.27-.92,2.68-.92,4.23v72.43c0,1.55.34,2.93,1.02,4.13s1.84,2.15,3.49,2.86c.99.38,2.6.79,4.83,1.23,2.23.45,4.12.69,5.68.74v5.01Z"/>
    <path class="cls-1" d="M808.33,159.67l-2.12,29.76h-78.21v-5.01c1.13-.09,2.76-.26,4.9-.49,2.14-.23,3.63-.54,4.48-.92,1.41-.61,2.43-1.5,3.07-2.68.63-1.17.95-2.68.95-4.51v-71.65c0-1.6-.27-3.01-.81-4.23-.54-1.22-1.61-2.21-3.21-2.96-1.08-.56-2.6-1.12-4.55-1.66-1.95-.54-3.56-.86-4.83-.95v-5.01h42.24v5.01c-1.32.05-3.02.28-5.11.71-2.09.42-3.61.8-4.55,1.13-1.6.56-2.69,1.53-3.28,2.89-.59,1.36-.88,2.82-.88,4.37v67.21c0,3.1.15,5.51.46,7.23.3,1.72,1.02,3.04,2.15,3.98,1.08.85,2.69,1.4,4.83,1.66,2.14.26,5.14.39,8.99.39,1.74,0,3.55-.05,5.43-.14,1.88-.09,3.67-.28,5.36-.56,1.65-.28,3.16-.67,4.55-1.16s2.41-1.12,3.07-1.87c1.93-2.16,4.17-5.44,6.73-9.84,2.56-4.4,4.34-7.96,5.32-10.68h5.01Z"/>
  </g>
</svg>